<svg id="Layer_1" data-name="Layer 1" xmlns="http://www.w3.org/2000/svg" xmlns:xlink="http://www.w3.org/1999/xlink" viewBox="0 0 114.06 33.62"><defs><style>.cls-1,.cls-3,.cls-4,.cls-6,.cls-7{fill:none;}.cls-2{clip-path:url(#clip-path);}.cls-3,.cls-4{stroke:#005daa;}.cls-3,.cls-6{stroke-width:1px;}.cls-4,.cls-7{stroke-width:2.99px;}.cls-5{clip-path:url(#clip-path-2);}.cls-6,.cls-7{stroke:#fff;}.cls-8{fill:url(#linear-gradient);}.cls-9{fill:url(#linear-gradient-2);}.cls-10{fill:url(#linear-gradient-3);}.cls-11{fill:url(#linear-gradient-4);}.cls-12{fill:#e1251b;}.cls-13{fill:#e84731;}.cls-14{fill:#ee5f46;}.cls-15{fill:#f4765b;}.cls-16{fill:#f98a71;}.cls-17{fill:#fc9d87;}</style><clipPath id="clip-path"><rect class="cls-1" x="-633.16" y="757.74" width="800" height="184.43"/></clipPath><clipPath id="clip-path-2"><rect class="cls-1" x="218.9" y="757.74" width="800" height="184.43"/></clipPath><linearGradient id="linear-gradient" x1="28.88" y1="5.65" x2="28.88" y2="27.97" gradientUnits="userSpaceOnUse"><stop offset="0" stop-color="#009bd2"/><stop offset="1" stop-color="#205caa"/></linearGradient><linearGradient id="linear-gradient-2" x1="55.09" y1="6.19" x2="55.09" y2="27.43" xlink:href="#linear-gradient"/><linearGradient id="linear-gradient-3" x1="78.73" y1="6.19" x2="78.73" y2="27.43" xlink:href="#linear-gradient"/><linearGradient id="linear-gradient-4" x1="99.09" y1="6.19" x2="99.09" y2="27.43" xlink:href="#linear-gradient"/></defs><g class="cls-2"><ellipse class="cls-3" cx="-518.95" cy="-256.14" rx="1187.58" ry="1187.59" transform="translate(29.12 -441.97) rotate(-45)"/><circle class="cls-4" cx="-476.3" cy="-269.85" r="1187.59" transform="translate(51.31 -415.83) rotate(-45)"/></g><g class="cls-5"><ellipse class="cls-6" cx="333.12" cy="-256.14" rx="1187.58" ry="1187.59" transform="translate(278.69 160.53) rotate(-45)"/><circle class="cls-7" cx="375.76" cy="-269.85" r="1187.59" transform="translate(300.87 186.67) rotate(-45)"/></g><path class="cls-8" d="M39.26,23.74A11.12,11.12,0,0,1,30,28a11,11,0,0,1-8.8-3.71,11.2,11.2,0,0,1-2.7-7.57,10.47,10.47,0,0,1,3.35-8A11.42,11.42,0,0,1,30,5.65a10.77,10.77,0,0,1,9.3,4.48l-1.67,1.28A9.13,9.13,0,0,0,30,7.76a9.58,9.58,0,0,0-4.64,1.18,8.64,8.64,0,0,0-3.42,3.28,9.17,9.17,0,0,0-1.21,4.66,8.61,8.61,0,0,0,2.72,6.54,9.37,9.37,0,0,0,6.68,2.52,9.47,9.47,0,0,0,7.48-3.48Z"/><path class="cls-9" d="M65.32,27.43H63l-3.34-7H50.54l-3.32,7H44.85l10-21.24h.52Zm-6.56-9-3.61-7.7-3.65,7.7Z"/><path class="cls-10" d="M85.53,27.43H82.92l-7.66-9.88H74.05v9.88H71.94V6.19h4.23A26,26,0,0,1,81,6.47a5.3,5.3,0,0,1,4.27,5.36,5,5,0,0,1-3.17,5,10.72,10.72,0,0,1-4.2.69ZM83,11.83a3.43,3.43,0,0,0-.57-1.92,3.16,3.16,0,0,0-1.52-1.25,9.32,9.32,0,0,0-3.14-.38H74.05v7.19l3.66,0q3.65,0,4.75-1.69A3.58,3.58,0,0,0,83,11.83Z"/><path class="cls-11" d="M105.17,8.29H95.11v6.62h10V17h-10v8.32h10v2.11H93V6.19h12.17Z"/><rect class="cls-12" x="4.58" y="24.06" width="8.06" height="3.37"/><rect class="cls-13" x="5.78" y="20.07" width="6.87" height="2.99"/><rect class="cls-14" x="6.98" y="16.19" width="5.67" height="2.87"/><rect class="cls-15" x="8.03" y="13.05" width="4.62" height="2.14"/><rect class="cls-16" x="9.08" y="10.37" width="3.57" height="1.67"/><path class="cls-17" d="M9.57,7.52A1.53,1.53,0,0,1,11.11,6h0a1.53,1.53,0,0,1,1.54,1.53h0a1.53,1.53,0,0,1-1.54,1.54h0A1.53,1.53,0,0,1,9.57,7.52Z"/><path class="cls-12" d="M17.73,26.33a1.06,1.06,0,0,1-2.12,0,1.06,1.06,0,0,1,2.12,0Z"/><path class="cls-12" d="M43.09,26.33A1.07,1.07,0,1,1,42,25.27,1.06,1.06,0,0,1,43.09,26.33Z"/><path class="cls-12" d="M69.58,26.33a1.06,1.06,0,1,1-1.06-1.06A1.06,1.06,0,0,1,69.58,26.33Z"/><path class="cls-12" d="M89.86,26.33a1.06,1.06,0,0,1-2.12,0,1.06,1.06,0,0,1,2.12,0Z"/><path class="cls-12" d="M109.47,26.33a1.06,1.06,0,1,1-1.06-1.06A1.05,1.05,0,0,1,109.47,26.33Z"/></svg>